# xmcd
#
# Track frame offsets:
#	150
#	11410
#	24144
#	36369
#	50599
#	62962
#	73861
#	84676
#	97567
#	108889
#	119888
#	132092
#	142146
#	153920
#	165232
#	176322
#
# Disc length: 2486 seconds
#
# Revision: 2
# Processed by: cddbd v1.5.2PL0 Copyright (c) Steve Scherf et al.
# Submitted via: audiograbber 1.83.01
#
DISCID=cd09b410
DTITLE=Guy Mitchell - The Collection - CD 1
DYEAR=2004
DGENRE=Country
TTITLE0=Singing The Blues
TTITLE1=The Roving Kind
TTITLE2=The Cuff Of My Shirt
TTITLE3=She Wears Red Feathers
TTITLE4=Feet Up (Pat Him On The Po-Po)
TTITLE5=The Day Of Jubilo
TTITLE6=Crazy With Love
TTITLE7=Look At That Girl
TTITLE8=Cloud Lucky Seven
TTITLE9=A Dime And A Dollar
TTITLE10=Heartaches By The Number
TTITLE11=Knee Deep In The Blues
TTITLE12=Pretty Little Black Eyed Susie
TTITLE13=Sippin' Soda
TTITLE14=Belle, Belle, My Liberty Belle
TTITLE15=Rock-A-Billy
EXTD=
EXTT0=
EXTT1=
EXTT2=
EXTT3=
EXTT4=
EXTT5=
EXTT6=
EXTT7=
EXTT8=
EXTT9=
EXTT10=
EXTT11=
EXTT12=
EXTT13=
EXTT14=
EXTT15=
PLAYORDER=
